<svg xmlns="http://www.w3.org/2000/svg" viewBox="-10 -128.001 100 100">
  <defs>
    <style>
      .cls-1 {
        fill: #fff;
      }
    </style>
  </defs>
  <g id="Group_1" data-name="Group 1" transform="translate(-8229 -4034)">
    <g id="Facebook_Live_-_Full_Color" data-name="Facebook Live - Full Color" transform="translate(8219 3905.999)">
      <path id="Subtraction_1" data-name="Subtraction 1" class="cls-1" d="M94.51,100h0v-.07H69.01V61.25H82l1.945-15.069H69.007V36.527c0-2.542.426-4.183,1.38-5.321,1.153-1.373,3.156-2.041,6.125-2.041H84.5V15.7a98.824,98.824,0,0,0-11.674-.626c-5.79,0-10.65,1.771-14.055,5.121a17.019,17.019,0,0,0-3.985,6.246A24.478,24.478,0,0,0,53.368,35v11.11H40.306V61.25H53.37V99.93H5.49A5.5,5.5,0,0,1,0,94.445V5.486A5.5,5.5,0,0,1,5.49,0H94.51A5.5,5.5,0,0,1,100,5.486V94.513A5.5,5.5,0,0,1,94.51,100Z" transform="translate(0 0)"/>
    </g>
  </g>
</svg>
