<svg xmlns="http://www.w3.org/2000/svg" viewBox="2 -45 99.83 100">
  <defs>
    <style>
      .cls-1 {
        fill: #fff;
      }
    </style>
  </defs>
  <g id="Group_2" data-name="Group 2" transform="translate(39 -88)">
    <g id="insta" transform="translate(-37 43)">
      <path id="Path_1" data-name="Path 1" class="cls-1" d="M32.813,7.18A25.633,25.633,0,1,0,58.446,32.813,25.633,25.633,0,0,0,32.813,7.18Zm0,42.283a16.65,16.65,0,1,1,16.65-16.65,16.65,16.65,0,0,1-16.65,16.65Z" transform="translate(17.069 17.069)"/>
      <circle id="Ellipse_1" data-name="Ellipse 1" class="cls-1" cx="5.978" cy="5.978" r="5.978" transform="translate(70.55 17.325)"/>
      <path id="Path_2" data-name="Path 2" class="cls-1" d="M97.2,17.224A25.532,25.532,0,0,0,82.61,2.634,36.643,36.643,0,0,0,70.483.3C65.147.068,63.458,0,49.916,0S34.65,0,29.348.3A36.643,36.643,0,0,0,17.224,2.63,25.532,25.532,0,0,0,2.634,17.22,36.643,36.643,0,0,0,.3,29.348C.068,34.684,0,36.373,0,49.916S0,65.181.3,70.483A36.643,36.643,0,0,0,2.63,82.607,25.532,25.532,0,0,0,17.224,97.2a36.643,36.643,0,0,0,12.124,2.5c5.336.236,7.025.3,20.567.3s15.265,0,20.567-.3a36.643,36.643,0,0,0,12.124-2.33A25.532,25.532,0,0,0,97.2,82.776a36.642,36.642,0,0,0,2.33-12.124c.236-5.336.3-7.025.3-20.567s0-15.265-.3-20.567A36.643,36.643,0,0,0,97.2,17.224ZM90.442,70.078a27.625,27.625,0,0,1-1.722,9.355,16.548,16.548,0,0,1-9.49,9.49,27.626,27.626,0,0,1-9.254,1.722c-5.268.236-6.754.3-20.263.3s-14.894,0-20.263-.3a27.625,27.625,0,0,1-9.25-1.722,16.515,16.515,0,0,1-9.524-9.49A27.626,27.626,0,0,1,8.95,70.179c-.236-5.268-.3-6.754-.3-20.263s0-14.894.3-20.263A27.626,27.626,0,0,1,10.672,20.3,16.515,16.515,0,0,1,20.2,10.81,27.626,27.626,0,0,1,29.45,9.085c5.268-.236,6.754-.3,20.263-.3s14.894,0,20.263.3a27.626,27.626,0,0,1,9.254,1.722,16.548,16.548,0,0,1,9.49,9.49,27.626,27.626,0,0,1,1.722,9.254c.236,5.268.3,6.754.3,20.263s0,14.961-.236,20.263Z"/>
    </g>
  </g>
</svg>
