<svg xmlns="http://www.w3.org/2000/svg" viewBox="109 -26 100 100.002">
  <defs>
    <style>
      .cls-1 {
        fill: #fff;
      }
    </style>
  </defs>
  <g id="linkedin-logo" transform="translate(109 -25.999)">
    <path id="LinkedIn__x28_alt_x29_" class="cls-1" d="M92.618,0H7.391A7.279,7.279,0,0,0,0,7.165V92.833A7.282,7.282,0,0,0,7.391,100H92.618A7.279,7.279,0,0,0,100,92.833V7.165A7.276,7.276,0,0,0,92.618,0Zm-62.3,83.708H15.21V38.558H30.319ZM22.766,32.39h-.1c-5.067,0-8.351-3.465-8.351-7.8,0-4.426,3.381-7.8,8.548-7.8s8.346,3.37,8.447,7.8C31.308,28.926,28.03,32.39,22.766,32.39ZM84.784,83.708h-15.1V59.551c0-6.07-2.188-10.212-7.651-10.212a8.252,8.252,0,0,0-7.748,5.492,10.09,10.09,0,0,0-.5,3.657V83.707h-15.1s.2-40.915,0-45.149h15.1v6.4a15,15,0,0,1,13.6-7.458c9.942,0,17.4,6.449,17.4,20.323V83.708ZM53.681,45.1c.026-.042.062-.093.1-.143V45.1Z"/>
  </g>
</svg>
