<svg id="Group_4" data-name="Group 4" xmlns="http://www.w3.org/2000/svg" viewBox="268.75 -365 100.25 100">
  <defs>
    <style>
      .cls-1 {
        fill: rgba(255,255,255,0);
      }

      .cls-2 {
        fill: #fff;
      }
    </style>
  </defs>
  <rect id="Rectangle_1" data-name="Rectangle 1" class="cls-1" width="100" height="100" transform="translate(269 -365)"/>
  <path id="Path_1" data-name="Path 1" class="cls-2" d="M106.447,179.7c37.735,0,58.374-31.263,58.374-58.374,0-.888,0-1.771-.061-2.653A41.743,41.743,0,0,0,175,108.057a40.959,40.959,0,0,1-11.784,3.229,20.587,20.587,0,0,0,9.019-11.347,41.119,41.119,0,0,1-13.028,4.979,20.535,20.535,0,0,0-34.964,18.711A58.246,58.246,0,0,1,81.961,102.19a20.532,20.532,0,0,0,6.352,27.388A20.364,20.364,0,0,1,79,127.01v.261a20.521,20.521,0,0,0,16.454,20.11,20.479,20.479,0,0,1-9.259.353,20.54,20.54,0,0,0,19.167,14.24,41.167,41.167,0,0,1-25.479,8.8A41.771,41.771,0,0,1,75,170.488a58.078,58.078,0,0,0,31.447,9.2" transform="translate(193.75 -453.838)"/>
</svg>
