<svg xmlns="http://www.w3.org/2000/svg" viewBox="-413.702 2263.496 414.402 172.724"><defs><style>.a{fill:none;stroke:#fff;stroke-width:3px;}.b{fill:#1f1f1f;}.c{fill:#fff;}</style></defs><path class="a" d="M1.216,57.594A46.876,46.876,0,0,1,29.5,3.427" transform="translate(-373.769 2287.572)"/><path class="a" d="M94.278,57.373a46.2,46.2,0,0,1-22.6,31.286" transform="translate(-457.344 2232.608)"/><path class="a" d="M35.706,44C15.382,41.582,0,31.975,0,20.5,0,11.9,8.632,4.351,21.859,0" transform="translate(-341.318 2293.179) rotate(45)"/><path class="a" d="M121.92,2.41A96.3,96.3,0,0,1,174.9,34.759" transform="translate(-502.525 2299.193)"/><path class="b" d="M35-52.78a28.128,28.128,0,0,0,2.38,11.62,29.381,29.381,0,0,0,6.44,9.24,29.109,29.109,0,0,0,9.45,6.09,30.263,30.263,0,0,0,11.41,2.17,30.263,30.263,0,0,0,11.41-2.17,29.927,29.927,0,0,0,9.52-6.09,28.835,28.835,0,0,0,6.51-9.24A28.128,28.128,0,0,0,94.5-52.78,28.128,28.128,0,0,0,92.12-64.4a28.835,28.835,0,0,0-6.51-9.24,29.927,29.927,0,0,0-9.52-6.09A30.263,30.263,0,0,0,64.68-81.9a30.263,30.263,0,0,0-11.41,2.17,29.109,29.109,0,0,0-9.45,6.09,29.381,29.381,0,0,0-6.44,9.24A28.128,28.128,0,0,0,35-52.78Zm-28.7,0a55.138,55.138,0,0,1,4.34-21.91A54.674,54.674,0,0,1,22.68-92.4a55.013,55.013,0,0,1,18.41-11.83,63.153,63.153,0,0,1,23.59-4.27,63.306,63.306,0,0,1,23.52,4.27A55.634,55.634,0,0,1,106.75-92.4a54.142,54.142,0,0,1,12.11,17.71,55.138,55.138,0,0,1,4.34,21.91,55.138,55.138,0,0,1-4.34,21.91,54.142,54.142,0,0,1-12.11,17.71A55.634,55.634,0,0,1,88.2-1.33,63.306,63.306,0,0,1,64.68,2.94,63.153,63.153,0,0,1,41.09-1.33,55.013,55.013,0,0,1,22.68-13.16,54.674,54.674,0,0,1,10.64-30.87,55.138,55.138,0,0,1,6.3-52.78ZM168-57.12h9.1q15.12,0,15.12-13.16T177.1-83.44H168ZM168,0H140.56V-105.56h43.68q17.78,0,27.23,9.24t9.45,26.04q0,16.8-9.45,26.04T184.24-35H168ZM295.54-82.32H262.92v17.64h30.8v23.24h-30.8v18.2h32.62V0H235.48V-105.56h60.06ZM315.28,0V-105.56h27.44L393.4-41.02v-64.54h27.3V0H393.4L342.72-64.54V0Z" transform="translate(-420 2372)"/><path class="c" d="M36.076-29.116a12.132,12.132,0,0,0-9.744-4.814A11.919,11.919,0,0,0,21.6-33a11.5,11.5,0,0,0-3.741,2.523,11.617,11.617,0,0,0-2.465,3.8,12.471,12.471,0,0,0-.9,4.756,12.627,12.627,0,0,0,.9,4.814,11.71,11.71,0,0,0,2.494,3.828,11.69,11.69,0,0,0,3.741,2.552,11.564,11.564,0,0,0,4.64.928q5.452,0,9.8-4.64V-.986l-1.16.406A33.563,33.563,0,0,1,30.044.783a23.609,23.609,0,0,1-4.466.435A22.516,22.516,0,0,1,16.907-.493,22.673,22.673,0,0,1,9.6-5.307a23.949,23.949,0,0,1-5.075-7.366A22.465,22.465,0,0,1,2.61-21.982a22.358,22.358,0,0,1,1.885-9.251,23.025,23.025,0,0,1,5.046-7.25,23.077,23.077,0,0,1,7.337-4.756,22.879,22.879,0,0,1,8.758-1.711,23.988,23.988,0,0,1,5.133.551,31.136,31.136,0,0,1,5.307,1.711Zm17.748,7.25a11.653,11.653,0,0,0,.986,4.814,12.172,12.172,0,0,0,2.668,3.828A12.06,12.06,0,0,0,61.393-10.7a12.537,12.537,0,0,0,4.727.9,12.537,12.537,0,0,0,4.727-.9,12.4,12.4,0,0,0,3.944-2.523,11.946,11.946,0,0,0,2.7-3.828,11.653,11.653,0,0,0,.986-4.814,11.653,11.653,0,0,0-.986-4.814,11.946,11.946,0,0,0-2.7-3.828,12.4,12.4,0,0,0-3.944-2.523,12.537,12.537,0,0,0-4.727-.9,12.537,12.537,0,0,0-4.727.9,12.06,12.06,0,0,0-3.915,2.523A12.172,12.172,0,0,0,54.81-26.68a11.653,11.653,0,0,0-.986,4.814Zm-11.89,0a22.843,22.843,0,0,1,1.8-9.077A22.651,22.651,0,0,1,48.72-38.28a22.791,22.791,0,0,1,7.627-4.9,26.163,26.163,0,0,1,9.773-1.77,26.227,26.227,0,0,1,9.744,1.769,23.048,23.048,0,0,1,7.685,4.9,22.43,22.43,0,0,1,5.017,7.337,22.843,22.843,0,0,1,1.8,9.077,22.843,22.843,0,0,1-1.8,9.077,22.43,22.43,0,0,1-5.017,7.337,23.048,23.048,0,0,1-7.685,4.9A26.227,26.227,0,0,1,66.12,1.218,26.163,26.163,0,0,1,56.347-.551a22.791,22.791,0,0,1-7.627-4.9,22.651,22.651,0,0,1-4.988-7.337,22.843,22.843,0,0,1-1.8-9.078Zm66.99-21.866v23.78q0,1.914.145,3.915a10.73,10.73,0,0,0,.87,3.625,6.032,6.032,0,0,0,2.291,2.639,8.083,8.083,0,0,0,4.408,1.015,7.931,7.931,0,0,0,4.379-1.015,6.288,6.288,0,0,0,2.291-2.639,10.306,10.306,0,0,0,.9-3.625q.145-2,.145-3.915v-23.78h11.31v25.346q0,10.208-4.669,14.906t-14.355,4.7q-9.686,0-14.384-4.7t-4.7-14.906V-43.732Zm47.27,19.546h2.146a8.288,8.288,0,0,0,5.162-1.392,4.759,4.759,0,0,0,1.8-4,4.759,4.759,0,0,0-1.8-4,8.288,8.288,0,0,0-5.162-1.392h-2.146ZM181.192,0H167.04L156.194-16.82V0H144.826V-43.732h17.69a17.363,17.363,0,0,1,6.38,1.073,12.345,12.345,0,0,1,4.5,2.929,12.349,12.349,0,0,1,2.668,4.292,14.958,14.958,0,0,1,.9,5.22,12.829,12.829,0,0,1-2.407,8.091,12.122,12.122,0,0,1-7.1,4.205Zm21.4-34.1V0H191.226V-34.1h-9.338v-9.628h30.044V-34.1Z" transform="translate(-283 2435)"/><path class="c" d="M35-52.78a28.128,28.128,0,0,0,2.38,11.62,29.381,29.381,0,0,0,6.44,9.24,29.109,29.109,0,0,0,9.45,6.09,30.263,30.263,0,0,0,11.41,2.17,30.263,30.263,0,0,0,11.41-2.17,29.927,29.927,0,0,0,9.52-6.09,28.835,28.835,0,0,0,6.51-9.24A28.128,28.128,0,0,0,94.5-52.78,28.128,28.128,0,0,0,92.12-64.4a28.835,28.835,0,0,0-6.51-9.24,29.927,29.927,0,0,0-9.52-6.09A30.263,30.263,0,0,0,64.68-81.9a30.263,30.263,0,0,0-11.41,2.17,29.109,29.109,0,0,0-9.45,6.09,29.381,29.381,0,0,0-6.44,9.24A28.128,28.128,0,0,0,35-52.78Zm-28.7,0a55.138,55.138,0,0,1,4.34-21.91A54.674,54.674,0,0,1,22.68-92.4a55.013,55.013,0,0,1,18.41-11.83,63.153,63.153,0,0,1,23.59-4.27,63.306,63.306,0,0,1,23.52,4.27A55.634,55.634,0,0,1,106.75-92.4a54.142,54.142,0,0,1,12.11,17.71,55.138,55.138,0,0,1,4.34,21.91,55.138,55.138,0,0,1-4.34,21.91,54.142,54.142,0,0,1-12.11,17.71A55.634,55.634,0,0,1,88.2-1.33,63.306,63.306,0,0,1,64.68,2.94,63.153,63.153,0,0,1,41.09-1.33,55.013,55.013,0,0,1,22.68-13.16,54.674,54.674,0,0,1,10.64-30.87,55.138,55.138,0,0,1,6.3-52.78ZM168-57.12h9.1q15.12,0,15.12-13.16T177.1-83.44H168ZM168,0H140.56V-105.56h43.68q17.78,0,27.23,9.24t9.45,26.04q0,16.8-9.45,26.04T184.24-35H168ZM295.54-82.32H262.92v17.64h30.8v23.24h-30.8v18.2h32.62V0H235.48V-105.56h60.06ZM315.28,0V-105.56h27.44L393.4-41.02v-64.54h27.3V0H393.4L342.72-64.54V0Z" transform="translate(-420 2372)"/></svg>